<?xml version="1.0" standalone="yes"?>
<svg xmlns="http://www.w3.org/2000/svg" width="160" height="160">
<path style="fill:#0e0e0d; stroke:none;" d="M0 0L0 160L160 160L160 0L0 0z"/>
<path style="fill:#a1a1a1; stroke:none;" d="M17 12L7 13C8.31144 17.0995 11.4703 28.0292 16 20L17 20L18 25L20 23C23.404 29.4858 28.848 27.8419 33 23L37 27L36 24L39 25L39 24L34 17C42.5542 9.51572 20.3897 -4.61298 17 12M126 17L121 24L121 25L124 24L123 27L127 23C131.152 27.8419 136.596 29.4857 140 23L142 25L143 20L144 20C148.53 28.0291 151.689 17.0995 153 13L143 12C139.61 -4.61299 117.446 9.51573 126 17z"/>
<path style="fill:#fac425; stroke:none;" d="M34 11L35 12L34 11M125 11L126 12L125 11z"/>
<path style="fill:#4669ad; stroke:none;" d="M6 14L7 27L3 25L3 26C8.55847 31.8581 7.68115 34.9928 17 35C18.4569 41.8854 28.2297 45.0237 33.4861 39.5664C36.9157 36.0056 35.5049 30.4277 36 26L33 23C28.0541 27.213 24.462 28.6107 20 23L18 25L17 20L16 20C10.3107 26.0081 9.74826 16.8401 6 14M17 14L18 15L17 14M142 14L143 15L142 14M152 14C151.018 18.6763 149.032 25.314 144 20L143 20L142 25L140 23C135.538 28.6107 131.946 27.213 127 23L124 26C124.495 30.4277 123.084 36.0056 126.514 39.5664C131.77 45.0237 141.543 41.8854 143 35C151.477 34.9935 151.39 32.9473 156 27L156 26L153 27L154 14L152 14z"/>
<path style="fill:#fac425; stroke:none;" d="M46 24L46 26L35 27L45.8218 50L52.1049 57.9668L67 50C68.91 54.4578 71.0889 56.6219 76 57C77.6547 62.4463 82.3453 62.4463 84 57C88.9111 56.6219 91.09 54.4578 93 50L107.895 57.9668L114.178 50L125 27L114 26L114 25C116.538 24.325 120.538 24.4202 122.691 22.9221C131.109 17.0629 113.11 12.1063 108.657 16.0278C106.491 17.9349 107.607 27.823 106.978 31C105.655 37.6707 100.645 41.5415 96 46L95 43L92 45C89.088 30.9381 70.912 30.9381 68 45C65.5398 43.639 64.6105 42.9313 64 46C58.8041 41.2004 51.6206 35.8534 54 28L54 27C51.6224 24.0391 51.4312 21.8372 54 19C51.404 14.2923 40.6302 12.752 36.4228 16.7423C32.9451 20.0406 37.3355 23.4449 40.5864 23.7901C42.3738 23.9799 44.2056 23.958 46 24z"/>
<path style="fill:#4669ad; stroke:none;" d="M17 17L17 20L18 20L17 17M34 17L35 18L34 17M125 17L126 18L125 17M142 17L142 20L143 20L142 17z"/>
<path style="fill:#a1a1a1; stroke:none;" d="M7 27C8.2951 15.7358 -0.285981 22.5275 7 27M52 27C67.1844 23.3849 92.8156 23.3849 108 27L106.667 19.6034L94 19L66 19L53.3326 19.6034L52 27M153 27L157 26C156.735 17.9348 152.138 19.5003 153 27M40 23L41 24L40 23M119 23L120 24L119 23z"/>
<path style="fill:#4669ad; stroke:none;" d="M36 24L46 26L46 25L36 24z"/>
<path style="fill:#a1a1a1; stroke:none;" d="M45 24L46 25L45 24M115 24L116 25L115 24z"/>
<path style="fill:#4669ad; stroke:none;" d="M114 25L114 26L124 24L114 25M53 26L53 27L67 27L64 43L68 44L71 33L75 33L75 34L73 34L73 35L87 35L87 34L85 34L85 33L89 33L92 44L96 43L93 27L107 27L89 26L53 26z"/>
<path style="fill:#0e0e0d; stroke:none;" d="M64 46L67 27C63.4819 27 57.4538 25.8716 54.4491 28.0278C47.6231 32.9262 60.3745 43.5949 64 46M76 27L76 28L84 28L76 27M93 27L96 46C102.692 41.4113 108.148 35.5806 107 27L93 27z"/>
<path style="fill:#a1a1a1; stroke:none;" d="M35 29L36 30L35 29M124 29L125 30L124 29z"/>
<path style="fill:#0e0e0d; stroke:none;" d="M71 33L71 34L75 34L71 33M85 33L85 34L89 34L85 33z"/>
<path style="fill:#a1a1a1; stroke:none;" d="M72 34L73 35L72 34M87 34L88 35L87 34M70 35L71 36L70 35M79.6667 35.3333L80.3333 35.6667L79.6667 35.3333M89 35L90 36L89 35M69.3333 37.6667L69.6667 38.3333L69.3333 37.6667M90.3333 37.6667L90.6667 38.3333L90.3333 37.6667M73.6667 38.3333L74.3333 38.6667L73.6667 38.3333M85.6667 38.3333L86.3333 38.6667L85.6667 38.3333M71 39L72 42L75 45L76 45L77 41L77 40L71 39z"/>
<path style="fill:#4669ad; stroke:none;" d="M72 39L72 40L76 40L72 39M84 39L84 40L89 41L84 39z"/>
<path style="fill:#a1a1a1; stroke:none;" d="M88 39L89 40L88 39z"/>
<path style="fill:#4669ad; stroke:none;" d="M71 40L72 41L71 40z"/>
<path style="fill:#a1a1a1; stroke:none;" d="M83 40L83 41L84 45L85 45L88 42L83 40M68.3333 41.6667L68.6667 42.3333L68.3333 41.6667z"/>
<path style="fill:#4669ad; stroke:none;" d="M73 41L72 45L75 45L73 41M86 41L85 45L88 45L86 41z"/>
<path style="fill:#a1a1a1; stroke:none;" d="M91.3333 41.6667L91.6667 42.3333L91.3333 41.6667M65 42L66 43L65 42M94 42L95 43L94 42M66 43L66 45L68 45L66 43M93 43L92 45L94 45L93 43M64 50L65 51L64 50z"/>
<path style="fill:#05b69d; stroke:none;" d="M52 59L61.6559 79L65.5139 88.9722L82 90L95.8356 88.3966L100.928 71L108 59L93 50C85.307 63.1557 74.693 63.1557 67 50L52 59z"/>
<path style="fill:#a1a1a1; stroke:none;" d="M75 50L75 51L85 51L85 50L75 50z"/>
<path style="fill:#4669ad; stroke:none;" d="M76 50L77 51L76 50M83 50L84 51L83 50z"/>
<path style="fill:#a1a1a1; stroke:none;" d="M95 50L96 51L95 50z"/>
<path style="fill:#4669ad; stroke:none;" d="M77 51L77 52L83 52L77 51z"/>
<path style="fill:#a1a1a1; stroke:none;" d="M61 52L62 53L61 52M78 52L79 53L78 52M81 52L82 53L81 52M98 52L99 53L98 52M60 53L61 54L60 53M99 53L100 54L99 53M69 54L70 55L69 54M90 54L91 55L90 54M57 55L58 56L57 55M102 55L103 56L102 55M56 56L57 57L56 56M103 56L104 57L103 56M75.3333 57.6667L75.6667 58.3333L75.3333 57.6667M84.3333 57.6667L84.6667 58.3333L84.3333 57.6667M53 58L54 59L53 58M106 58L107 59L106 58M76 60L77 61L76 60M83 60L84 61L83 60M77 61L78 62L77 61M82 61L83 62L82 61M79.6667 62.3333L80.3333 62.6667L79.6667 62.3333z"/>
<path style="fill:#4669ad; stroke:none;" d="M62 95L64 95L53 101L53 102L68 114.263L79.9105 110.302L89.7153 115.172L106 102C103.312 98.1847 99.6911 93.3965 95.5756 91.0278C88.4386 86.9199 66.5356 88.2954 62 95z"/>
<path style="fill:#a1a1a1; stroke:none;" d="M58 99L64 95L58 99z"/>
<path style="fill:#fac425; stroke:none;" d="M58 97L59 98L58 97z"/>
<path style="fill:#a1a1a1; stroke:none;" d="M53 102L53 103L69 116C65.1222 110.495 59.6445 103.865 53 102M91 116L107 103C101.328 101.862 93.6112 111.44 91 116z"/>
<path style="fill:#fac425; stroke:none;" d="M65 145C65.0009 136.978 63.4085 122.136 70 117C66.5555 113.274 60.2502 104.544 55.0008 103.921C50.9545 103.441 47.6656 108.723 46.6535 112C44.7667 118.109 48.0117 137.402 52.1644 142.397C54.4868 145.19 61.5944 144.189 65 145M90 116L90 117C96.5915 122.136 94.9991 136.978 95 145C98.3883 144.193 104.555 145.12 107.262 142.972C111.548 139.57 111.772 127.102 112.883 122C114.052 116.638 114.134 102.841 105 103.921C99.6146 104.558 94.3494 112.936 90 116z"/>
<path style="fill:#4669ad; stroke:none;" d="M67 156L66 144C60.636 144.865 55.1936 143.65 50 144.558C46.3274 145.2 36.2042 151.887 43.3179 155.397C49.0962 158.248 60.5938 156 67 156z"/>
<path style="fill:#a1a1a1; stroke:none;" d="M54 144L54 145L63 145L54 144z"/>
<path style="fill:#4669ad; stroke:none;" d="M94 144L93 156C99.4062 156 110.904 158.248 116.682 155.397C123.796 151.887 113.673 145.2 110 144.558C104.785 143.646 99.3805 144.928 94 144z"/>
<path style="fill:#a1a1a1; stroke:none;" d="M97 144L97 145L106 145L97 144z"/>
</svg>
